<svg width="24" height="24" viewBox="0 0 24 24" fill="none" xmlns="http://www.w3.org/2000/svg">
<g clip-path="url(#clip0_5381_517)">
<path d="M23.0944 12.0882C23.0944 11.302 22.9962 10.6141 22.8979 9.82788H11.793V14.2502H18.1808C17.8859 15.7243 17.0015 16.9036 15.7239 17.788V20.7362H19.6549C22.0134 18.5742 23.0944 15.4295 23.0944 12.0882Z" fill="#4285F4"/>
<path d="M11.792 23.586C14.9368 23.586 17.5901 22.505 19.5556 20.7361L15.6247 17.7878C14.5437 18.4758 13.1678 18.9671 11.792 18.9671C8.84379 18.9671 6.28868 17.0017 5.40422 14.25H1.375V17.1982C3.34047 21.1291 7.27141 23.586 11.792 23.586Z" fill="#34A853"/>
<path d="M5.40505 14.2496C5.2085 13.5617 5.01195 12.7755 5.01195 11.7927C5.01195 10.81 5.2085 10.1221 5.40505 9.3359V6.3877H1.37583C0.491368 8.15662 0 9.92554 0 11.7927C0 13.6599 0.491368 15.4289 1.37583 17.1978L5.40505 14.2496Z" fill="#FE7B02"/>
<path d="M11.792 4.71738C13.4626 4.71738 15.035 5.30702 16.2143 6.38803L19.5556 3.04672C17.5901 1.17953 14.9368 0.000244141 11.792 0.000244141C7.27141 0.000244141 3.34047 2.45708 1.375 6.38803L5.40422 9.33623C6.28868 6.58457 8.84379 4.71738 11.792 4.71738Z" fill="#FE3F21"/>
</g>
<defs>
<clipPath id="clip0_5381_517">
<rect width="23.5857" height="23.5857" fill="white"/>
</clipPath>
</defs>
</svg>
