<svg width="66" height="65" viewBox="0 0 66 65" fill="none" xmlns="http://www.w3.org/2000/svg">
<mask id="path-1-inside-1_5381_528" fill="white">
<path d="M0 14.1514C0 6.3358 6.3358 0 14.1514 0H51.8486C59.6642 0 66 6.3358 66 14.1514V50.8486C66 58.6642 59.6642 65 51.8486 65H14.1514C6.3358 65 0 58.6642 0 50.8486V14.1514Z"/>
</mask>
<path d="M0 14.1514C0 6.3358 6.3358 0 14.1514 0H51.8486C59.6642 0 66 6.3358 66 14.1514V50.8486C66 58.6642 59.6642 65 51.8486 65H14.1514C6.3358 65 0 58.6642 0 50.8486V14.1514Z" fill="white"/>
<path d="M14.1514 0V1.17928H51.8486V0V-1.17928H14.1514V0ZM66 14.1514H64.8207V50.8486H66H67.1793V14.1514H66ZM51.8486 65V63.8207H14.1514V65V66.1793H51.8486V65ZM0 50.8486H1.17928V14.1514H0H-1.17928V50.8486H0ZM14.1514 65V63.8207C6.9871 63.8207 1.17928 58.0129 1.17928 50.8486H0H-1.17928C-1.17928 59.3155 5.6845 66.1793 14.1514 66.1793V65ZM66 50.8486H64.8207C64.8207 58.0129 59.0129 63.8207 51.8486 63.8207V65V66.1793C60.3155 66.1793 67.1793 59.3155 67.1793 50.8486H66ZM51.8486 0V1.17928C59.0129 1.17928 64.8207 6.9871 64.8207 14.1514H66H67.1793C67.1793 5.6845 60.3155 -1.17928 51.8486 -1.17928V0ZM14.1514 0V-1.17928C5.6845 -1.17928 -1.17928 5.6845 -1.17928 14.1514H0H1.17928C1.17928 6.9871 6.9871 1.17928 14.1514 1.17928V0Z" fill="black" fill-opacity="0.1" mask="url(#path-1-inside-1_5381_528)"/>
<g clip-path="url(#clip0_5381_528)">
<path d="M30.4732 38.4732C30.1123 38.4732 29.7466 38.3985 29.3951 38.2445L21.8951 34.9172C20.5544 34.3245 19.9498 32.7519 20.5451 31.4172L23.8873 23.9505C24.4826 22.6159 26.0623 22.0139 27.4029 22.6065L34.9029 25.9339C36.2435 26.5265 36.8482 28.0992 36.2529 29.4339L32.9107 36.9005C32.4654 37.8899 31.4904 38.4732 30.4732 38.4732ZM30.0185 36.8445C30.5857 37.0965 31.2513 36.8399 31.5044 36.2799L34.8466 28.8132C35.0998 28.2485 34.8419 27.5859 34.2794 27.3339L26.7748 24.0065C26.2076 23.7545 25.5419 24.0112 25.2888 24.5712L21.9466 32.0379C21.6935 32.6025 21.9513 33.2652 22.5138 33.5172L30.0185 36.8445Z" fill="#089949"/>
<path d="M54 38.4778H45.7875C44.3203 38.4778 43.125 37.2878 43.125 35.8272V27.6512C43.125 26.1905 44.3203 25.0005 45.7875 25.0005H54C55.4672 25.0005 56.6625 26.1905 56.6625 27.6512V35.8272C56.6625 37.2878 55.4672 38.4778 54 38.4778ZM45.7875 26.5312C45.1687 26.5312 44.6625 27.0352 44.6625 27.6512V35.8272C44.6625 36.4432 45.1687 36.9472 45.7875 36.9472H54C54.6187 36.9472 55.125 36.4432 55.125 35.8272V27.6512C55.125 27.0352 54.6187 26.5312 54 26.5312H45.7875Z" fill="#F9B21D"/>
<path d="M23.2452 29.1491L22.1389 31.6131C22.1249 31.6411 22.1108 31.6645 22.0967 31.6878L22.528 34.3385C22.6264 34.9498 22.2092 35.5238 21.5999 35.6218L13.4905 36.9285C13.1952 36.9751 12.8952 36.9051 12.6514 36.7325C12.4077 36.5598 12.2483 36.2985 12.2014 36.0045L10.8889 27.9311C10.842 27.6371 10.9124 27.3385 11.0858 27.0958C11.2592 26.8531 11.5217 26.6945 11.817 26.6478L19.9264 25.3411C19.9874 25.3318 20.0483 25.3271 20.1045 25.3271C20.6436 25.3271 21.1264 25.7191 21.2155 26.2698L21.6514 28.9391L22.7952 26.3865L22.7342 26.0271C22.4999 24.5851 21.1311 23.6005 19.6827 23.8338L11.5733 25.1405C10.8749 25.2478 10.2561 25.6258 9.8436 26.1998C9.42642 26.7738 9.26235 27.4738 9.37485 28.1738L10.6874 36.2471C10.7999 36.9471 11.1795 37.5585 11.7561 37.9738C12.2108 38.3051 12.7499 38.4731 13.3077 38.4731C13.4483 38.4731 13.5936 38.4638 13.7389 38.4405L21.8483 37.1338C23.2967 36.9005 24.2858 35.5378 24.0514 34.0958L23.2452 29.1491Z" fill="#E42527"/>
<path d="M32.9719 33.0039L34.1625 30.3486L33.825 27.8799C33.7829 27.5859 33.8625 27.2919 34.0454 27.0539C34.2282 26.8159 34.4907 26.6619 34.7907 26.6246L42.9282 25.5232C42.9797 25.5186 43.0313 25.5139 43.0829 25.5139C43.3266 25.5139 43.561 25.5932 43.7625 25.7426C43.8 25.7706 43.8329 25.8032 43.8657 25.8312C44.2266 25.4532 44.7 25.1826 45.2297 25.0659C45.0797 24.8606 44.9016 24.6786 44.6907 24.5199C44.1235 24.0906 43.425 23.9086 42.7219 24.0019L34.575 25.1032C33.8719 25.1966 33.2438 25.5606 32.8172 26.1252C32.386 26.6899 32.2032 27.3852 32.2969 28.0852L32.9719 33.0039Z" fill="#226DB4"/>
<path d="M46.819 34.3712L45.7503 26.5312C45.1503 26.5499 44.6675 27.0446 44.6675 27.6466V29.9472L45.3003 34.5766C45.3425 34.8706 45.2628 35.1646 45.08 35.4026C44.8972 35.6406 44.6347 35.7946 44.3347 35.8319L36.1972 36.9332C35.9019 36.9752 35.6065 36.8959 35.3675 36.7139C35.1284 36.5319 34.9737 36.2706 34.9362 35.9719L34.5612 33.2232L33.3706 35.8786L33.4128 36.1772C33.5065 36.8772 33.8722 37.5026 34.4394 37.9272C34.9081 38.2819 35.4659 38.4686 36.0472 38.4686C36.169 38.4686 36.2909 38.4592 36.4128 38.4452L44.5409 37.3532C45.244 37.2599 45.8722 36.8959 46.2987 36.3312C46.73 35.7666 46.9128 35.0712 46.819 34.3712Z" fill="#226DB4"/>
<path d="M23.8591 42.3558L25.0216 40.6478H24.0653C24.0137 40.6478 23.9716 40.6058 23.9716 40.5544V40.3258C23.9716 40.2744 24.0137 40.2324 24.0653 40.2324H25.6356C25.6872 40.2324 25.7294 40.2744 25.7294 40.3258V40.4144C25.7294 40.4331 25.7247 40.4518 25.7153 40.4658L24.5762 42.1738H25.5981C25.6497 42.1738 25.6919 42.2158 25.6919 42.2671V42.4958C25.6919 42.5471 25.6497 42.5891 25.5981 42.5891H23.9387C23.8872 42.5891 23.845 42.5471 23.845 42.4958V42.4118C23.8403 42.3884 23.8497 42.3698 23.8591 42.3558Z" fill="black"/>
<path d="M28.7529 41.3944C28.7529 40.6944 29.2686 40.1904 29.9717 40.1904C30.6982 40.1904 31.1904 40.6851 31.1904 41.3991C31.1904 42.1224 30.6889 42.6218 29.9623 42.6218C29.2311 42.6218 28.7529 42.1224 28.7529 41.3944ZM30.6326 41.4038C30.6326 40.9791 30.4264 40.6151 29.9623 40.6151C29.4936 40.6151 29.3154 40.9931 29.3154 41.4224C29.3154 41.8284 29.5357 42.2018 29.9857 42.2018C30.4498 42.1971 30.6326 41.8004 30.6326 41.4038Z" fill="black"/>
<path d="M34.523 40.2278H34.8699C34.9215 40.2278 34.9636 40.2698 34.9636 40.3211V41.1891H35.948V40.3211C35.948 40.2698 35.9902 40.2278 36.0418 40.2278H36.3886C36.4402 40.2278 36.4824 40.2698 36.4824 40.3211V42.4911C36.4824 42.5424 36.4402 42.5844 36.3886 42.5844H36.0465C35.9949 42.5844 35.9527 42.5424 35.9527 42.4911V41.6138H34.9683V42.4911C34.9683 42.5424 34.9261 42.5844 34.8746 42.5844H34.5277C34.4761 42.5844 34.434 42.5424 34.434 42.4911V40.3211C34.4293 40.2698 34.4715 40.2278 34.523 40.2278Z" fill="black"/>
<path d="M39.7217 41.3944C39.7217 40.6944 40.2373 40.1904 40.9404 40.1904C41.667 40.1904 42.1592 40.6851 42.1592 41.3991C42.1592 42.1224 41.6576 42.6218 40.9311 42.6218C40.1998 42.6218 39.7217 42.1224 39.7217 41.3944ZM41.5967 41.4038C41.5967 40.9791 41.3904 40.6151 40.9264 40.6151C40.4576 40.6151 40.2795 40.9931 40.2795 41.4224C40.2795 41.8284 40.4998 42.2018 40.9498 42.2018C41.4139 42.1971 41.5967 41.8004 41.5967 41.4038Z" fill="black"/>
</g>
<defs>
<clipPath id="clip0_5381_528">
<rect width="48" height="21" fill="white" transform="translate(9 22)"/>
</clipPath>
</defs>
</svg>
